# xmcd CD database file
#
# Track frame offsets:
#	150
#	29035
#	53182
#	71972
#	88020
#	106170
#	118622
#	130410
#	153634
#	168830
#	189342
#	212930
#	230635
#	259577
#
# Disc length: 3684 seconds
#
# Revision: 2
# Processed by: cddbd v1.5.1PL2 Copyright (c) Steve Scherf et al.
# Submitted via: CDex 1.51
#
DISCID=cc0e620e
DTITLE=Celso Blues Boy - Indiana Blues
DYEAR=1996
DGENRE=Blues
TTITLE0=Onze horas da manha
TTITLE1=Mississipi
TTITLE2=Tempos dificeis
TTITLE3=Cachorro louco
TTITLE4=Aumenta que isso ai eh Rock'n'Roll
TTITLE5=Balada para Jack
TTITLE6=Indiana Blues
TTITLE7=Homem das ruas
TTITLE8=Liberdade
TTITLE9=Sempre brilhara
TTITLE10=Amor vazio
TTITLE11=Apenas outro blues
TTITLE12=Lagrimas
TTITLE13=Baby Blue
EXTD=YEAR: 1996
EXTT0=
EXTT1=with BB King\n
EXTT2=
EXTT3=
EXTT4=
EXTT5=
EXTT6=
EXTT7=
EXTT8=
EXTT9=
EXTT10=
EXTT11=
EXTT12=
EXTT13=
PLAYORDER=
